<mxfile host="app.diagrams.net" agent="Mozilla/5.0 (Macintosh; Intel Mac OS X 10_15_7) AppleWebKit/537.36 (KHTML, like Gecko) Chrome/127.0.0.0 Safari/537.36" version="24.7.6">
  <diagram name="Page-1" id="8JVLy8Yp0rVLLIkwYryW">
    <mxGraphModel dx="1034" dy="515" grid="1" gridSize="10" guides="1" tooltips="1" connect="1" arrows="1" fold="1" page="1" pageScale="1" pageWidth="850" pageHeight="1100" math="0" shadow="0">
      <root>
        <mxCell id="0" />
        <mxCell id="1" parent="0" />
        <mxCell id="IJwL1wxU7PcUVYIVv_fR-1" value="Sales Agent" style="image;aspect=fixed;perimeter=ellipsePerimeter;html=1;align=center;shadow=0;dashed=0;spacingTop=3;image=img/lib/active_directory/user_accounts.svg;" parent="1" vertex="1">
          <mxGeometry x="80" y="230" width="50" height="48.5" as="geometry" />
        </mxCell>
        <mxCell id="IJwL1wxU7PcUVYIVv_fR-2" value="" style="rounded=0;whiteSpace=wrap;html=1;" parent="1" vertex="1">
          <mxGeometry x="240" y="90" width="570" height="530" as="geometry" />
        </mxCell>
        <mxCell id="IJwL1wxU7PcUVYIVv_fR-3" style="edgeStyle=orthogonalEdgeStyle;rounded=0;orthogonalLoop=1;jettySize=auto;html=1;entryX=0;entryY=0.5;entryDx=0;entryDy=0;" parent="1" source="IJwL1wxU7PcUVYIVv_fR-1" edge="1">
          <mxGeometry relative="1" as="geometry">
            <mxPoint x="270" y="550" as="targetPoint" />
            <Array as="points">
              <mxPoint x="170" y="254" />
              <mxPoint x="170" y="550" />
            </Array>
          </mxGeometry>
        </mxCell>
        <mxCell id="IJwL1wxU7PcUVYIVv_fR-10" value="Chooses service&amp;nbsp;&lt;div&gt;to interact with&lt;/div&gt;" style="edgeLabel;html=1;align=center;verticalAlign=middle;resizable=0;points=[];" parent="IJwL1wxU7PcUVYIVv_fR-3" vertex="1" connectable="0">
          <mxGeometry x="0.157" y="-3" relative="1" as="geometry">
            <mxPoint x="3" y="-57" as="offset" />
          </mxGeometry>
        </mxCell>
        <mxCell id="IJwL1wxU7PcUVYIVv_fR-13" value="" style="edgeStyle=orthogonalEdgeStyle;rounded=0;orthogonalLoop=1;jettySize=auto;html=1;" parent="1" edge="1">
          <mxGeometry relative="1" as="geometry">
            <mxPoint x="390" y="550" as="sourcePoint" />
            <mxPoint x="450" y="550" as="targetPoint" />
          </mxGeometry>
        </mxCell>
        <mxCell id="IJwL1wxU7PcUVYIVv_fR-8" value="" style="endArrow=none;html=1;rounded=0;entryX=1;entryY=0.051;entryDx=0;entryDy=0;entryPerimeter=0;" parent="1" target="IJwL1wxU7PcUVYIVv_fR-2" edge="1">
          <mxGeometry width="50" height="50" relative="1" as="geometry">
            <mxPoint x="240" y="117" as="sourcePoint" />
            <mxPoint x="797" y="116" as="targetPoint" />
          </mxGeometry>
        </mxCell>
        <mxCell id="IJwL1wxU7PcUVYIVv_fR-9" value="SnowPark Container Ecosystem" style="text;html=1;align=center;verticalAlign=middle;whiteSpace=wrap;rounded=0;" parent="1" vertex="1">
          <mxGeometry x="430" y="90" width="180" height="30" as="geometry" />
        </mxCell>
        <mxCell id="IJwL1wxU7PcUVYIVv_fR-17" value="" style="edgeStyle=orthogonalEdgeStyle;rounded=0;orthogonalLoop=1;jettySize=auto;html=1;exitX=1.088;exitY=0.443;exitDx=0;exitDy=0;exitPerimeter=0;entryX=0;entryY=0.5;entryDx=0;entryDy=0;" parent="1" edge="1">
          <mxGeometry relative="1" as="geometry">
            <mxPoint x="521.136" y="547" as="sourcePoint" />
            <mxPoint x="640" y="549.85" as="targetPoint" />
            <Array as="points">
              <mxPoint x="521" y="549.85" />
            </Array>
          </mxGeometry>
        </mxCell>
        <mxCell id="IJwL1wxU7PcUVYIVv_fR-19" style="edgeStyle=orthogonalEdgeStyle;rounded=0;orthogonalLoop=1;jettySize=auto;html=1;entryX=0.514;entryY=1.005;entryDx=0;entryDy=0;entryPerimeter=0;" parent="1" source="IJwL1wxU7PcUVYIVv_fR-16" target="IJwL1wxU7PcUVYIVv_fR-18" edge="1">
          <mxGeometry relative="1" as="geometry">
            <Array as="points">
              <mxPoint x="705" y="470" />
              <mxPoint x="620" y="470" />
            </Array>
          </mxGeometry>
        </mxCell>
        <mxCell id="IJwL1wxU7PcUVYIVv_fR-56" value="Service is an&amp;nbsp;&lt;div&gt;image deployed&amp;nbsp;&lt;/div&gt;&lt;div&gt;from the Snowflake&lt;/div&gt;&lt;div&gt;repository&lt;/div&gt;" style="edgeLabel;html=1;align=center;verticalAlign=middle;resizable=0;points=[];" parent="IJwL1wxU7PcUVYIVv_fR-19" vertex="1" connectable="0">
          <mxGeometry x="-0.0317" y="3" relative="1" as="geometry">
            <mxPoint x="15" y="7" as="offset" />
          </mxGeometry>
        </mxCell>
        <mxCell id="IJwL1wxU7PcUVYIVv_fR-16" value="UDF calls service endpoint /recommend" style="whiteSpace=wrap;html=1;rounded=0;" parent="1" vertex="1">
          <mxGeometry x="640" y="530" width="130" height="40" as="geometry" />
        </mxCell>
        <mxCell id="IJwL1wxU7PcUVYIVv_fR-30" style="edgeStyle=orthogonalEdgeStyle;rounded=0;orthogonalLoop=1;jettySize=auto;html=1;exitX=0;exitY=0.5;exitDx=0;exitDy=0;entryX=0.5;entryY=0;entryDx=0;entryDy=0;" parent="1" source="IJwL1wxU7PcUVYIVv_fR-18" target="IJwL1wxU7PcUVYIVv_fR-29" edge="1">
          <mxGeometry relative="1" as="geometry">
            <Array as="points">
              <mxPoint x="450" y="320" />
              <mxPoint x="334" y="320" />
            </Array>
          </mxGeometry>
        </mxCell>
        <mxCell id="IJwL1wxU7PcUVYIVv_fR-57" value="Agent Calls&lt;div&gt;4-o-mini&lt;/div&gt;" style="edgeLabel;html=1;align=center;verticalAlign=middle;resizable=0;points=[];" parent="IJwL1wxU7PcUVYIVv_fR-30" vertex="1" connectable="0">
          <mxGeometry x="0.5853" y="1" relative="1" as="geometry">
            <mxPoint as="offset" />
          </mxGeometry>
        </mxCell>
        <mxCell id="IJwL1wxU7PcUVYIVv_fR-18" value="" style="whiteSpace=wrap;html=1;rounded=0;" parent="1" vertex="1">
          <mxGeometry x="440" y="140" width="350" height="290" as="geometry" />
        </mxCell>
        <mxCell id="IJwL1wxU7PcUVYIVv_fR-22" value="" style="shape=image;verticalLabelPosition=bottom;labelBackgroundColor=default;verticalAlign=top;aspect=fixed;imageAspect=0;image=https://images.datacamp.com/image/upload/v1640050215/image27_frqkzv.png;" parent="1" vertex="1">
          <mxGeometry x="272.5" y="510" width="115" height="67.27" as="geometry" />
        </mxCell>
        <mxCell id="IJwL1wxU7PcUVYIVv_fR-23" value="&lt;div style=&quot;text-align: justify;&quot;&gt;&lt;br&gt;&lt;/div&gt;" style="sketch=0;aspect=fixed;pointerEvents=1;shadow=0;dashed=0;html=1;strokeColor=none;labelPosition=center;verticalLabelPosition=bottom;verticalAlign=top;align=center;shape=mxgraph.mscae.enterprise.udf_function;fillColor=#0078D7;" parent="1" vertex="1">
          <mxGeometry x="470" y="525" width="47" height="50" as="geometry" />
        </mxCell>
        <mxCell id="IJwL1wxU7PcUVYIVv_fR-28" value="&lt;div style=&quot;forced-color-adjust: none; color: rgb(0, 0, 0); font-family: Helvetica; font-size: 12px; font-style: normal; font-variant-ligatures: normal; font-variant-caps: normal; font-weight: 400; letter-spacing: normal; orphans: 2; text-indent: 0px; text-transform: none; widows: 2; word-spacing: 0px; -webkit-text-stroke-width: 0px; white-space: nowrap; background-color: rgb(251, 251, 251); text-decoration-thickness: initial; text-decoration-style: initial; text-decoration-color: initial;&quot;&gt;&lt;span style=&quot;forced-color-adjust: none; text-wrap: wrap; background-color: initial;&quot;&gt;Calls UDF on&amp;nbsp;&lt;/span&gt;&lt;/div&gt;&lt;div style=&quot;forced-color-adjust: none; color: rgb(0, 0, 0); font-family: Helvetica; font-size: 12px; font-style: normal; font-variant-ligatures: normal; font-variant-caps: normal; font-weight: 400; letter-spacing: normal; orphans: 2; text-indent: 0px; text-transform: none; widows: 2; word-spacing: 0px; -webkit-text-stroke-width: 0px; white-space: normal; background-color: rgb(251, 251, 251); text-decoration-thickness: initial; text-decoration-style: initial; text-decoration-color: initial;&quot;&gt;Column&lt;/div&gt;" style="text;html=1;align=center;verticalAlign=middle;whiteSpace=wrap;rounded=0;" parent="1" vertex="1">
          <mxGeometry x="440" y="580" width="110" height="30" as="geometry" />
        </mxCell>
        <mxCell id="IJwL1wxU7PcUVYIVv_fR-29" value="" style="shape=image;verticalLabelPosition=bottom;labelBackgroundColor=default;verticalAlign=top;aspect=fixed;imageAspect=0;image=data:image/png,iVBORw0KGgoAAAANSUhEUgAAASwAAACoCAMAAABt9SM9AAAAe1BMVEUAAAD///+urq6+vr76+vrOzs6RkZHd3d2oqKhxcXG5ubna2tpubm4wMDB/f3/19fXj4+N3d3c9PT3Hx8dFRUWenp5LS0v29vZgYGDr6+tQUFAhISGEhITV1dWioqIXFxdlZWUyMjJYWFgmJiaXl5dGRkYRERGLi4scHBzW65fnAAAGKUlEQVR4nO2aa5uiOBCFCaIi2oJgKyB4oW3t//8LN1W5ENx2duZpZ8xsn/eLgBiTY91SGAQAAAAAAAAAAAAAAAAAAAAAAAAAAAAAAAAAAAAAAAAAAAAAAAAAAAAAAAAAAAAAfGu6Rfn27Dn8HTSZIKr9syfiP++VMESrZ0/Gc45kU6/lppvM5dE5L8v1s6fkLTkppI/LrTKwbZI/dU7eIsPVQh8eRtYfRfjUSXnKQohXfbgnkUarul4W8mD+1Gl5ySwTqTpapSTVTp2cZPgqnjcrL9lHUqCEjmoK7tO6f2ssxPJZ0/KRnSoZGnlIwSodlg2pqG4/cMjzjz81Oc84SL+bNkLMVPWgCtLLSBTKFeU7R/f2RRFxJTaePebru3Y8bvuku5KnlnbzmO94HNLxYiocZhTlW6XQmW1N6TbIiOusT5TVQ5bCmTe2pxPhUj7iGx7IkqPVWot1pUuzSvqi9chMjO3Nx8FSbK3xFXig1J6evRZLpUEj1kQezkVEVUQ9pcKhDlrRmntPvIK4O526mJ3x6zXrSlqojAOdOd9cm2bZUkJumub68uXxH8pJ1e29ZSVyopkSYUWFfFL1ljUm59NNCU4L7WdD/hJyyHikU7GFrPr65aEfz1KZhxGrjURWyrmODvzu3oldfJMQJ/PJNzpzw1be3Rha3m0ON1+3q+tBIj3IMeqZzBeDu0isyVdW9ZuQMYJejFgipapqMzf1/BsV8abQIulG/UcTHZlfq6rKg5D9cmQdpy5Y6ExbiLynoGBIZZwTiSYcrwR/e89fIpbRYmnrLfrZtedRKHGKsIXeDIVkYTZLlnZcjdovkc/OzKV+kCl7oPTFPokE/oolVXmXL++c2hZ9pBDSCObco5lZcyK7cNo2J53GSCy56DRLWQlWtqH34uV1bAIbGVlqBbzoIajVcVR3uw7rq1gn5XAnjkwLO8WDLK4KHXdHWoCA4r2Tnz5o2YESS6RkUWw6pOxF+qQq/M/akFijML/kXFeZr9nraHUT0H0VS5YOPF3541Zd6YglddrYTKkuR0Oxdq5YKu53+tK1L8IyZVqsFV+gWGY255W22vmwu+GtWCvjZXLNmeOGZFQ6zFd6cT8Qy8Q6Cl2dEkRfke9uAyWWss/SxrGgNppOhiN7KxZFV/WTr1vhBHhHrFYv7gdiGZETlTyzvhigFLpTYqkLLxTi+rvttdd+ZH/FulDsVTnsWOnSQSWpW7G298Uy1YU+plQQKbRJCSufI9bWOuRUuM0Nf8WqOfaOlY+chSpKi8/ckCRwqlBKZbTCO2I53BGLdprhbCWZkd++25H9FUsWD9z80zt/co3pxo1ZuXmSQXVA039wpcuCO2IlhlHy8blYxVDSvrnhr1gyuAYXkmhLQnDHQWdDLVZinI/KAKd4LHSgCZ2ljVSlkN1uYD4Va6iV03rwV6yG8/6a+snZorVdLCvW0QYWWmbfH6hNxRCKfkdNdedarXb4L4BPxKJSNJtryBaP5mZ/xer09mPGBXah1vhqxSqdqE6LiLRadWTqJa6z1A6GUh8VCtK1zUPIxZS315+IRT+Prdtzp/7gUOBj1yGgikD71llk6lEF6abEChPh9PgurGd7PR4bil9iy2sNVcSpX0oOQmyZqQlvsbAV/I1Y9OpUotK0IrkLOiZhGFK11srXxL9n4uFNR3LDHkkOpmKJ0w/N++0dabU2nxdjezHja1zKp3PeXrMi/xbrPPS1WKUGv9vK3FPa2i5V8EG2xNWWaiIXg27lxXlYXejOFIk12+uLrd4jd1ZWFfDoSL1z0opWwmmOqRA4972tHHCEiYz5nJ0qQgozOd3enO/bNIrSeWxdRJUL3ahKq8KxwmVRpek00c8gY4k62oVxLC3qTb68ugPTHZegDOOe0Me/WtDPmU3KzTFOHVt6H7T67uPWWd+BWWQtf2pqg106cJP7fDexqDesxbJ/O0p/ttb5fmLJLNWVG0pi6V6+XqmF/JN/N/qOYjG588S5+e/bmeQX7v2fsZqyUml8+xTrLi/r9fvud07Ja7pF6dmjYAAAAAAAAAAAAAAAAAAAAAAAAAAAAAAAAAAAAAAAAAAAAAAAAAAAAAAAAAAAAAC+G/8AXaVEWCZUTesAAAAASUVORK5CYII=;" parent="1" vertex="1">
          <mxGeometry x="280.36" y="400" width="107.14" height="60" as="geometry" />
        </mxCell>
        <mxCell id="IJwL1wxU7PcUVYIVv_fR-31" style="edgeStyle=orthogonalEdgeStyle;rounded=0;orthogonalLoop=1;jettySize=auto;html=1;exitX=0;exitY=0.5;exitDx=0;exitDy=0;entryX=0.5;entryY=1;entryDx=0;entryDy=0;" parent="1" source="IJwL1wxU7PcUVYIVv_fR-49" edge="1">
          <mxGeometry relative="1" as="geometry">
            <mxPoint x="460" y="255" as="sourcePoint" />
            <mxPoint x="330" y="250" as="targetPoint" />
            <Array as="points" />
          </mxGeometry>
        </mxCell>
        <mxCell id="IJwL1wxU7PcUVYIVv_fR-32" value="" style="endArrow=none;html=1;rounded=0;exitX=0.003;exitY=0.116;exitDx=0;exitDy=0;exitPerimeter=0;entryX=0.996;entryY=0.111;entryDx=0;entryDy=0;entryPerimeter=0;" parent="1" edge="1">
          <mxGeometry width="50" height="50" relative="1" as="geometry">
            <mxPoint x="441.22999999999996" y="161.44999999999996" as="sourcePoint" />
            <mxPoint x="788.78" y="159.99999999999997" as="targetPoint" />
          </mxGeometry>
        </mxCell>
        <mxCell id="IJwL1wxU7PcUVYIVv_fR-33" value="SnowPark Image Repository" style="text;html=1;align=center;verticalAlign=middle;whiteSpace=wrap;rounded=0;" parent="1" vertex="1">
          <mxGeometry x="525" y="140" width="180" height="20" as="geometry" />
        </mxCell>
        <mxCell id="IJwL1wxU7PcUVYIVv_fR-50" value="" style="edgeStyle=orthogonalEdgeStyle;rounded=0;orthogonalLoop=1;jettySize=auto;html=1;exitX=0;exitY=0.5;exitDx=0;exitDy=0;" parent="1" source="IJwL1wxU7PcUVYIVv_fR-18" edge="1">
          <mxGeometry relative="1" as="geometry">
            <mxPoint x="450" y="245" as="sourcePoint" />
            <mxPoint x="330" y="270" as="targetPoint" />
            <Array as="points">
              <mxPoint x="440" y="300" />
              <mxPoint x="330" y="300" />
            </Array>
          </mxGeometry>
        </mxCell>
        <mxCell id="IJwL1wxU7PcUVYIVv_fR-58" value="Access Data" style="edgeLabel;html=1;align=center;verticalAlign=middle;resizable=0;points=[];" parent="IJwL1wxU7PcUVYIVv_fR-50" vertex="1" connectable="0">
          <mxGeometry x="0.0028" y="-1" relative="1" as="geometry">
            <mxPoint as="offset" />
          </mxGeometry>
        </mxCell>
        <mxCell id="IJwL1wxU7PcUVYIVv_fR-49" value="&lt;meta charset=&quot;utf-8&quot;&gt;&lt;span style=&quot;color: rgb(0, 0, 0); font-family: Helvetica; font-size: 12px; font-style: normal; font-variant-ligatures: normal; font-variant-caps: normal; font-weight: 400; letter-spacing: normal; orphans: 2; text-align: center; text-indent: 0px; text-transform: none; widows: 2; word-spacing: 0px; -webkit-text-stroke-width: 0px; white-space: normal; background-color: rgb(251, 251, 251); text-decoration-thickness: initial; text-decoration-style: initial; text-decoration-color: initial; display: inline !important; float: none;&quot;&gt;OList Brazil ECommerce Dataset&lt;/span&gt;" style="text;html=1;align=center;verticalAlign=middle;whiteSpace=wrap;rounded=0;" parent="1" vertex="1">
          <mxGeometry x="300" y="230" width="60" height="30" as="geometry" />
        </mxCell>
        <mxCell id="IJwL1wxU7PcUVYIVv_fR-54" value="" style="rounded=0;whiteSpace=wrap;html=1;" parent="1" vertex="1">
          <mxGeometry x="270" y="160" width="120" height="60" as="geometry" />
        </mxCell>
        <mxCell id="IJwL1wxU7PcUVYIVv_fR-53" value="" style="shape=image;verticalLabelPosition=bottom;labelBackgroundColor=default;verticalAlign=top;aspect=fixed;imageAspect=0;image=data:image/png,iVBORw0KGgoAAAANSUhEUgAAATYAAACjCAMAAAA3vsLfAAAAYFBMVEX///8ptegAsOcYsuf0+v3V7flZwOses+cAruY9uema2PPk9fxnxO3e8fvT7Pnp9/274vap3fQyt+nC5/dLvutwye6O0/Hw+f3g8/vM6/nF6Piw4PV7ze+U1fKDz/BuyO7KZMSlAAAJ+ElEQVR4nO2caaOaOhCGSYIE8HgQZBFF+f//8s5kI8HoPccu2naeD61ghPBmkllCmyQEQRAEQRAEQRAEQRAEQRAEQRAEQRAEQRAEQRAEQRAEQRAEQRAEQRAEQRB/K+mDI+IOJeOsd0c14/L6wt78KUxcMsk7c9TDERPZS3v0J1BxhvCdOkrN0eeLe/X2HLRQYq+ONuaofnGv3p6D8GX7JNm+Bsn2FCTb1zlNcznojw9lS+u527+oj+/HlUshZKk+P5KtZtCMzy/r53sx5lobdk4eyXZqTDRyflVHq74VuRq1jpcPW475rx/cXisFQW473pVtl2Hgq5q9ytxOXEAX8g3ERTnjD3O+TGKzX4uVDYWby5hssp+saK+TrYIuCM5losLJ/5ON/3LZzCTVchkJQ9mYlEuTV01SGF1ZjyPK9Ray6cQzZCXbwpKu/m7g1gfz8T1kS07FWrh7sgn2qgBk4ExYqd5EtiQ5M/EF2WyU8gq2XBb289vIliSXwOBiskl+HX5PX2Ls3lO2ZOg84W5lAy+7/U09iXJ8U9kSLzZbFY5UTPfSmtvueBCy2O6Otlvfkm37053/EMw78A0mygjKlEw0oScYqtsLVcG5yp6Nz+vgfPpg7uuvGs4Fjh3nqtB8I5t3OfUhlG3D+eQ1Tu916st8Fpy3J//MWQq/KK5WPCFCT3D8EJwFRZFT10AkyiY3jcu8BROZ4KxopvV82X8wlGE28UQl+Hinf2mjosTjElny27jN3DzDloMOKwPZdkJKV9avLi2oL5r5ByKCXS5xDLOdf/LCOLu4oxoy0Ws4spMe+UW3quVS40a1kPwImQXOeTg7+xc4MEiSEMELJdee392sqIXOSWZnbWpzyJdthzdn6nryDNeSH0ko2xHuxvXkTtJOJWjQHgb+aeFmaUPYwGp1jz7HyjtylMLmpvbMFlILyZusFUKKQjcvJGvQauEM5kTNcv0rR8EY6Iq/QjOGiIzfmTWFFGfTiU3cJdQq5ZIFjgXj3V6sZduioObgU6o+CfiF+IHAnUm34vfrJXbKecQbefEdt2tZC93o1HDuYRQz87zYYsYLbDoIVN0TTxxuWuNPqxL6r6xnXq8Clh00tv2Ke9IaWogL3nw4FwKfZyVbBUrZzyNIzLMDDtGxhPPP7shlXsQhwwouPB5zo2QZ/WzCxuxbUMVN6jlv1N8om0te99DC7LXCYwpXCkhbeIwDbvssigT0QjqLiMZtECDJwrki7PNKtgFs3q6c0FEpbX6WpDOMtu8pvs7JS+LBIg7LN6oHLHTjXnyCpmS3oA/wDEujTzdJvcXvbKfh4KuGjwfrDvxAWM8NjNliedAB5yyisjUyEBxrOYFsqadaAoMk/NDzCrcN3OGXOQsvp/J8A6om0KUu9qY9gdOYu636UDZDIWXrHbZSF4ivIrSrFEYcVOrlsvMvZG6f88Rl45rGZIPhEEHYA9PHly0tPGWwn6HHbsNOfoP06luQ9Q2wGoGxDK1c7O0StvOcLy5A2XpJL2SwbQPDg0+DZnUI2oGrZOoSwpyACa0eHJnlMvujssFoLK9dmC882dJCevfL5LpSCLd9OpnYfoSCHNUCxJQHQ93087SBVRbBqMEQCzGFA1mE89u4wREuHN4dzA3v2LqiUCuds8HvlkkVkQ1d8CruBgNaZMOl00UZaNjrRKf1x+W7jK2XsAsw2wu4JNVFTEnVsPb+/GSrVGVoVEwlJ2+hANn8ZWSrpxsEL+tFOFMhRi3MkofmwowJnYX0XF1EttGfxJqLF4DgoC+qjDelQ2UCP/J6y6HxlvphsbbMWlu7GGSsdjTpIJLL3moVl+0qbyKNSZ1Krc/oYI2XJiTMbNCmiMhmgjSfs5VNbFSYIJ017sWtaBj4fkenFbUvG/SnExg+DJmwa5svW6x6VJUtRpFYW9In7sq23qg2SkLoht/gtDs2Wq4qTDwjsp2FWO9ruHAX4mmGPq1YvoFnuuX5AmJQotRWi7opT2reNSo9C5c8uh4M+w90tUL7prhsEIf1q58ZvcBp4g9LnJfwh/nsh/ER2Q7ixhOWTjYQqYSJKew1wJHKJF3zHZ0CYGXzXIJNgzqhFbLreuA3MPmLMaBf1OMXl+18+5yNCc3gXjv1516Z3Gb5xhCR7bg4YMu8yIaGD8Ntw8ftrf94nuPKjzpDmtSUW1xPWDXnRTxOHAoTf8Zlq266/mlnYo+xBKQLuNbAAtfBN+F6HwtAYOUN4xlwl1Y2nQF8SJabWKm5XViT/XOV1wsPAovJW7Y6vspJy1Dg9WKsOQn9QHHZMD4I8+fWBlM7bJHpJ1OqXFfBQUy2q1xlZRcnm70P5BEsdd+tJmXGnzLAfbBkhfWjZDythmKYgpkarR+M/KFsGKn79Zp6CTghhiqF8acg5qVhwRWisoH1BvEuFqNXqfyR2yAj5etwA8KqPHzmr7E4SHlv2gUEobHbftt7v5zFo0mqZo+XJ9Tekl1j/cLYCOb+62eM5qTw4J4v3MnbCojKhy/ubr7n7fmTuXzjtg68EDYtu+ngHX3MngPwHIi17zHHd0cUQ6dzzPuyDaANN2XPavIrSgMuF/ZhVZ9CvxPfucJEYDYdwVVE3sjmZezQO9m4LWqsdz2Xkna2TOmtIhCwSxd+JVt8hYv7tRHrG1ygWGH7pivrEm3RPNs92bBqCKHNbFt79ctZLFHWRXjWrInLlrYYW2aXuuywWCp7eSMbJoamDDrDPOVsquu6x+F/tt6Gb6OEnuDQaFGsD9XTONy3KtV2Q+7WqK2qiQsd57W2cHRHtmTA8pMwrX2/cuKLgUEMsvIdgWyfXiSM25Tu5sPBJVdLhwfpkvgaq7qqNTZfx5BfZgvR5uwVM1xFzfjq1BbkJJ+Prll6ZeHGzR5zBIAzu9C0IveTiYHzNmwNfV9t/iRwAfd55vlqW2bI+bKPkntNx8xcrjirFQOXq47nnov8zN27jEMvsLUUnHc/advX95RGtsrfXp4eOOvhUPaXepkYVR8+9dj7P96eL325X1/u2C8DmF5uNkjGfvA+H71vhj3c/KzPnC9ohmkfjMjB+2myqS99X55+1r+JcnsrcdmiGw7/PPvw3ZmYbLcbpv86m3b1plZcNsxZX/bm7vsx3bwXeE825a5e3Nt3ofZzrKhs0k9dn9y2+Ovwc6yrjMgm29mzR/5MHvcXYmVT2TyPyZYFWdW9F13+MUyOJVQ2f0c2CH7cS1wUhigqnRzpMuhd2fRLXFLm9O/WDNXMGhvKPpANQuKCZc/t///tPJSNuAfJ9hQk21OQbE+h3oN0r/QZ2Z57fe5fQu1m2U0yvR0fVmqJKDXnvFjelIcjRv97ylfYHO8fEQRBEARBEARBEARBEARBEARBEARBEARBEARBEARBEARBEARBEARBEARBEARBEARBEMR/H3lvEgUzLJwAAAAASUVORK5CYII=;" parent="1" vertex="1">
          <mxGeometry x="280" y="166.08" width="95.49" height="50.21" as="geometry" />
        </mxCell>
        <mxCell id="IJwL1wxU7PcUVYIVv_fR-59" value="" style="rounded=0;whiteSpace=wrap;html=1;fontStyle=1" parent="1" vertex="1">
          <mxGeometry x="562.5" y="190" width="105" height="220" as="geometry" />
        </mxCell>
        <mxCell id="IJwL1wxU7PcUVYIVv_fR-61" value="" style="rounded=0;whiteSpace=wrap;html=1;" parent="1" vertex="1">
          <mxGeometry x="680" y="190" width="105" height="220" as="geometry" />
        </mxCell>
        <mxCell id="IJwL1wxU7PcUVYIVv_fR-62" value="" style="rounded=0;whiteSpace=wrap;html=1;" parent="1" vertex="1">
          <mxGeometry x="445" y="190" width="105" height="220" as="geometry" />
        </mxCell>
        <mxCell id="IJwL1wxU7PcUVYIVv_fR-73" value="" style="edgeStyle=orthogonalEdgeStyle;rounded=0;orthogonalLoop=1;jettySize=auto;html=1;" parent="1" source="IJwL1wxU7PcUVYIVv_fR-63" target="IJwL1wxU7PcUVYIVv_fR-72" edge="1">
          <mxGeometry relative="1" as="geometry" />
        </mxCell>
        <mxCell id="IJwL1wxU7PcUVYIVv_fR-63" value="&lt;font style=&quot;font-size: 9px;&quot;&gt;ML Model Predicts if Customer may churn&lt;/font&gt;" style="rounded=0;whiteSpace=wrap;html=1;" parent="1" vertex="1">
          <mxGeometry x="689.63" y="220" width="85.75" height="40" as="geometry" />
        </mxCell>
        <mxCell id="IJwL1wxU7PcUVYIVv_fR-64" value="&lt;font style=&quot;font-size: 9px;&quot;&gt;Customer Service Bot&lt;/font&gt;" style="text;html=1;align=center;verticalAlign=middle;whiteSpace=wrap;rounded=0;" parent="1" vertex="1">
          <mxGeometry x="448.04" y="190" width="98.93" height="20" as="geometry" />
        </mxCell>
        <mxCell id="IJwL1wxU7PcUVYIVv_fR-66" value="&lt;font style=&quot;font-size: 9px;&quot;&gt;Personalized RecSys&lt;/font&gt;" style="text;html=1;align=center;verticalAlign=middle;whiteSpace=wrap;rounded=0;" parent="1" vertex="1">
          <mxGeometry x="565.54" y="190" width="98.93" height="20" as="geometry" />
        </mxCell>
        <mxCell id="IJwL1wxU7PcUVYIVv_fR-67" value="&lt;font style=&quot;font-size: 9px;&quot;&gt;Churn Reduction strat&lt;/font&gt;" style="text;html=1;align=center;verticalAlign=middle;whiteSpace=wrap;rounded=0;" parent="1" vertex="1">
          <mxGeometry x="683.04" y="190" width="98.93" height="20" as="geometry" />
        </mxCell>
        <mxCell id="IJwL1wxU7PcUVYIVv_fR-68" value="" style="endArrow=none;html=1;rounded=0;entryX=1.006;entryY=0.09;entryDx=0;entryDy=0;exitX=-0.014;exitY=0.09;exitDx=0;exitDy=0;exitPerimeter=0;entryPerimeter=0;" parent="1" target="IJwL1wxU7PcUVYIVv_fR-62" edge="1">
          <mxGeometry width="50" height="50" relative="1" as="geometry">
            <mxPoint x="445.0000000000001" y="209.80000000000007" as="sourcePoint" />
            <mxPoint x="548.44" y="208.78999999999996" as="targetPoint" />
          </mxGeometry>
        </mxCell>
        <mxCell id="IJwL1wxU7PcUVYIVv_fR-69" value="" style="endArrow=none;html=1;rounded=0;entryX=1.006;entryY=0.09;entryDx=0;entryDy=0;exitX=-0.014;exitY=0.09;exitDx=0;exitDy=0;exitPerimeter=0;entryPerimeter=0;fontStyle=1" parent="1" edge="1">
          <mxGeometry width="50" height="50" relative="1" as="geometry">
            <mxPoint x="562.0000000000001" y="210.00000000000006" as="sourcePoint" />
            <mxPoint x="668" y="210.2" as="targetPoint" />
          </mxGeometry>
        </mxCell>
        <mxCell id="IJwL1wxU7PcUVYIVv_fR-70" value="" style="endArrow=none;html=1;rounded=0;entryX=1.006;entryY=0.09;entryDx=0;entryDy=0;entryPerimeter=0;fontStyle=1" parent="1" edge="1">
          <mxGeometry width="50" height="50" relative="1" as="geometry">
            <mxPoint x="680" y="210" as="sourcePoint" />
            <mxPoint x="785" y="210.2" as="targetPoint" />
          </mxGeometry>
        </mxCell>
        <mxCell id="IJwL1wxU7PcUVYIVv_fR-71" value="&lt;font style=&quot;font-size: 9px;&quot;&gt;Agent Writes an email with offer&lt;/font&gt;" style="rounded=0;whiteSpace=wrap;html=1;" parent="1" vertex="1">
          <mxGeometry x="689.63" y="350" width="85.75" height="40" as="geometry" />
        </mxCell>
        <mxCell id="IJwL1wxU7PcUVYIVv_fR-75" value="" style="edgeStyle=orthogonalEdgeStyle;rounded=0;orthogonalLoop=1;jettySize=auto;html=1;" parent="1" source="IJwL1wxU7PcUVYIVv_fR-72" target="IJwL1wxU7PcUVYIVv_fR-71" edge="1">
          <mxGeometry relative="1" as="geometry" />
        </mxCell>
        <mxCell id="IJwL1wxU7PcUVYIVv_fR-72" value="&lt;font style=&quot;font-size: 9px;&quot;&gt;Agent fetches customer patterns&amp;nbsp;&lt;/font&gt;" style="rounded=0;whiteSpace=wrap;html=1;" parent="1" vertex="1">
          <mxGeometry x="689.62" y="290" width="85.75" height="30" as="geometry" />
        </mxCell>
        <mxCell id="IJwL1wxU7PcUVYIVv_fR-78" value="" style="edgeStyle=orthogonalEdgeStyle;rounded=0;orthogonalLoop=1;jettySize=auto;html=1;" parent="1" source="IJwL1wxU7PcUVYIVv_fR-79" target="IJwL1wxU7PcUVYIVv_fR-82" edge="1">
          <mxGeometry relative="1" as="geometry" />
        </mxCell>
        <mxCell id="IJwL1wxU7PcUVYIVv_fR-79" value="&lt;font style=&quot;font-size: 9px;&quot;&gt;Agent Fetches customer patterns&lt;/font&gt;" style="rounded=0;whiteSpace=wrap;html=1;" parent="1" vertex="1">
          <mxGeometry x="572.13" y="220" width="85.75" height="40" as="geometry" />
        </mxCell>
        <mxCell id="IJwL1wxU7PcUVYIVv_fR-80" value="&lt;font style=&quot;font-size: 10px;&quot;&gt;Fetches a list of item details&lt;/font&gt;" style="rounded=0;whiteSpace=wrap;html=1;" parent="1" vertex="1">
          <mxGeometry x="572.13" y="350" width="85.75" height="40" as="geometry" />
        </mxCell>
        <mxCell id="IJwL1wxU7PcUVYIVv_fR-81" value="" style="edgeStyle=orthogonalEdgeStyle;rounded=0;orthogonalLoop=1;jettySize=auto;html=1;" parent="1" source="IJwL1wxU7PcUVYIVv_fR-82" target="IJwL1wxU7PcUVYIVv_fR-80" edge="1">
          <mxGeometry relative="1" as="geometry" />
        </mxCell>
        <mxCell id="IJwL1wxU7PcUVYIVv_fR-82" value="&lt;font style=&quot;font-size: 9px;&quot;&gt;Traditional Model + Agentic Approach&lt;/font&gt;" style="rounded=0;whiteSpace=wrap;html=1;" parent="1" vertex="1">
          <mxGeometry x="572.12" y="290" width="85.75" height="30" as="geometry" />
        </mxCell>
        <mxCell id="IJwL1wxU7PcUVYIVv_fR-83" value="" style="edgeStyle=orthogonalEdgeStyle;rounded=0;orthogonalLoop=1;jettySize=auto;html=1;" parent="1" source="IJwL1wxU7PcUVYIVv_fR-84" target="IJwL1wxU7PcUVYIVv_fR-87" edge="1">
          <mxGeometry relative="1" as="geometry" />
        </mxCell>
        <mxCell id="IJwL1wxU7PcUVYIVv_fR-84" value="&lt;font style=&quot;font-size: 8px;&quot;&gt;Orchestration Agent chooses agent to call&lt;/font&gt;" style="rounded=0;whiteSpace=wrap;html=1;" parent="1" vertex="1">
          <mxGeometry x="454.63" y="220" width="85.75" height="40" as="geometry" />
        </mxCell>
        <mxCell id="IJwL1wxU7PcUVYIVv_fR-85" value="&lt;font style=&quot;font-size: 9px;&quot;&gt;Answer formatted and sent to user&lt;/font&gt;" style="rounded=0;whiteSpace=wrap;html=1;" parent="1" vertex="1">
          <mxGeometry x="454.63" y="350" width="85.75" height="40" as="geometry" />
        </mxCell>
        <mxCell id="IJwL1wxU7PcUVYIVv_fR-86" value="" style="edgeStyle=orthogonalEdgeStyle;rounded=0;orthogonalLoop=1;jettySize=auto;html=1;" parent="1" source="IJwL1wxU7PcUVYIVv_fR-87" target="IJwL1wxU7PcUVYIVv_fR-85" edge="1">
          <mxGeometry relative="1" as="geometry" />
        </mxCell>
        <mxCell id="IJwL1wxU7PcUVYIVv_fR-87" value="&lt;font style=&quot;font-size: 9px;&quot;&gt;Agent fetches relevant data&amp;nbsp;&lt;/font&gt;" style="rounded=0;whiteSpace=wrap;html=1;" parent="1" vertex="1">
          <mxGeometry x="454.62" y="290" width="85.75" height="30" as="geometry" />
        </mxCell>
      </root>
    </mxGraphModel>
  </diagram>
</mxfile>
